<svg id="Layer_1" data-name="Layer 1" xmlns="http://www.w3.org/2000/svg" viewBox="0 0 145 48"><title>trnt-logo</title><path d="M53.51,80,32,92.4v23.2L53.51,128l21.55-12.4V92.4Zm18.14,33.64L53.51,124.08,35.38,113.64V94.36L53.51,83.93,71.65,94.36Z" transform="translate(-31.97 -80)"/><polygon points="6.45 16.53 6.45 24.1 17.82 17.56 17.82 38.02 21.54 40.21 25.27 38.02 25.27 17.56 36.63 24.1 36.63 16.53 21.54 7.84 6.45 16.53"/><path d="M91.35,101.38H89.44V99h2V95.9H94V99h3.18v2.36H94v5.82c0,1.42.31,1.9,1.65,1.9h1v2.64H95.47c-3.06,0-4.12-1.3-4.12-4.25Z" transform="translate(-31.97 -80)"/><path d="M109.73,109.12a5.84,5.84,0,0,1-5.26,3,5.57,5.57,0,0,1-4.31-1.83,8,8,0,0,1,0-9.76,5.4,5.4,0,0,1,4.19-1.85,5.22,5.22,0,0,1,4.14,1.83,7.16,7.16,0,0,1,1.62,4.89v.82h-8.85c.07,2.11,1.22,3.47,3.16,3.47a3.13,3.13,0,0,0,2.2-.76,5.67,5.67,0,0,0,1.15-1.39Zm-2.27-5a2.93,2.93,0,0,0-3.11-3,3.06,3.06,0,0,0-3.06,3Z" transform="translate(-31.97 -80)"/><path d="M112.87,111.74V99h2.59v1.35h0a3,3,0,0,1,2.64-1.59,2.94,2.94,0,0,1,1.12.24l-.43,2.67a4.69,4.69,0,0,0-1-.2c-1.48,0-2.22,1.06-2.22,3.17v7.08Z" transform="translate(-31.97 -80)"/><path d="M121.3,111.74V99h2.58v1.35h.05a3,3,0,0,1,2.63-1.59,3,3,0,0,1,1.13.24l-.43,2.67a4.81,4.81,0,0,0-1-.2c-1.48,0-2.22,1.06-2.22,3.17v7.08Z" transform="translate(-31.97 -80)"/><path d="M137.24,111.74v-1.27h-.05a3.89,3.89,0,0,1-.91.88,4.67,4.67,0,0,1-2.68.75c-3,0-4.47-1.61-4.47-3.72s1.17-3.19,4.3-4a17.36,17.36,0,0,0,2.75-.86,1.13,1.13,0,0,0,.65-1c0-.87-.79-1.52-2.32-1.52a2.6,2.6,0,0,0-2.82,2.24l-2.32-.89a4.83,4.83,0,0,1,5.07-3.7c3.06,0,5.12,1.52,5.12,4.85v8.23Zm-5.48-3.55c0,1,.69,1.53,2.08,1.53,2,0,3.09-1,3.09-2.13v-2.54h-.05c-.12.33-.41.62-2.9,1.32C132.19,106.82,131.76,107.35,131.76,108.19Z" transform="translate(-31.97 -80)"/><path d="M142.91,111.74V99h2.64v1.23h0A4.56,4.56,0,0,1,149,98.66c2.8,0,4.53,1.78,4.53,4.75v8.33h-2.71v-7.61c0-2-.81-2.95-2.46-2.95a2.53,2.53,0,0,0-2.73,2.67v7.89Z" transform="translate(-31.97 -80)"/><path d="M167.39,109.12a5.84,5.84,0,0,1-5.26,3,5.57,5.57,0,0,1-4.31-1.83,8,8,0,0,1,0-9.76A5.42,5.42,0,0,1,162,98.66a5.22,5.22,0,0,1,4.14,1.83,7.11,7.11,0,0,1,1.63,4.89v.82h-8.85c.07,2.11,1.22,3.47,3.15,3.47a3.11,3.11,0,0,0,2.2-.76,5.67,5.67,0,0,0,1.15-1.39Zm-2.27-5a2.93,2.93,0,0,0-3.11-3,3.06,3.06,0,0,0-3.06,3Z" transform="translate(-31.97 -80)"/><path d="M171.13,101.38h-1.91V99h2V95.9h2.59V99H177v2.36h-3.16v5.82c0,1.42.31,1.9,1.65,1.9h1v2.64h-1.22c-3.06,0-4.12-1.3-4.12-4.25Z" transform="translate(-31.97 -80)"/></svg>